<svg width="24" height="24" viewBox="0 0 24 24" fill="none" xmlns="http://www.w3.org/2000/svg">
<path d="M9.64867 5.83419e-08C11.4827 -0.000201566 13.2788 0.522198 14.8266 1.506C16.3744 2.48981 17.6097 3.89427 18.3879 5.55487C19.1661 7.21546 19.4549 9.06342 19.2205 10.8822C18.9862 12.7011 18.2383 14.4155 17.0645 15.8246L23.72 22.4795C23.8355 22.5867 23.9199 22.7231 23.9644 22.8743C24.0089 23.0255 24.0117 23.1858 23.9727 23.3385C23.9337 23.4911 23.8542 23.6304 23.7426 23.7417C23.631 23.853 23.4915 23.9321 23.3387 23.9708C23.1862 24.0098 23.026 24.0071 22.8749 23.9629C22.7238 23.9186 22.5875 23.8345 22.4802 23.7193L15.8246 17.0643C14.6337 18.0559 13.2214 18.746 11.7073 19.0764C10.1933 19.4068 8.62185 19.3677 7.12607 18.9624C5.63029 18.5571 4.25412 17.7975 3.11399 16.748C1.97385 15.6985 1.10328 14.3898 0.575918 12.9327C0.0485562 11.4755 -0.120085 9.91286 0.0842605 8.3768C0.288606 6.84073 0.859927 5.37647 1.74989 4.10788C2.63986 2.83928 3.8223 1.80367 5.19718 1.08864C6.57206 0.373614 8.09894 0.000204645 9.64867 5.83419e-08ZM1.75326 9.64912C1.75326 10.6859 1.95748 11.7125 2.35426 12.6703C2.75105 13.6281 3.33262 14.4984 4.06577 15.2315C4.79893 15.9646 5.66931 16.5462 6.62723 16.9429C7.58514 17.3397 8.61183 17.5439 9.64867 17.5439C10.6855 17.5439 11.7122 17.3397 12.6701 16.9429C13.628 16.5462 14.4984 15.9646 15.2316 15.2315C15.9647 14.4984 16.5463 13.6281 16.9431 12.6703C17.3399 11.7125 17.5441 10.6859 17.5441 9.64912C17.5441 7.55531 16.7122 5.54725 15.2316 4.0667C13.7509 2.58615 11.7427 1.75439 9.64867 1.75439C7.55468 1.75439 5.54645 2.58615 4.06577 4.0667C2.5851 5.54725 1.75326 7.55531 1.75326 9.64912Z" fill="black"/>
</svg>
