<svg width="22" height="24" viewBox="0 0 22 24" fill="none" xmlns="http://www.w3.org/2000/svg">
<path fill-rule="evenodd" clip-rule="evenodd" d="M11.0001 1.67151C10.3275 1.67151 9.68239 1.93567 9.20677 2.40587C8.73114 2.87608 8.46393 3.51381 8.46393 4.17878V4.46851C9.09178 4.45736 9.7805 4.45736 10.538 4.45736H11.4634C12.2186 4.45736 12.9085 4.45736 13.5374 4.46851V4.17878C13.5374 3.84943 13.4718 3.5233 13.3443 3.21903C13.2168 2.91476 13.0298 2.63831 12.7942 2.40548C12.5586 2.17264 12.2789 1.98798 11.971 1.86205C11.6632 1.73611 11.3333 1.67137 11.0001 1.67151ZM15.2271 4.54428V4.17878C15.2271 3.0705 14.7818 2.00761 13.9891 1.22394C13.1963 0.440263 12.1212 0 11.0001 0C9.87906 0 8.80391 0.440263 8.01119 1.22394C7.21848 2.00761 6.77313 3.0705 6.77313 4.17878V4.54428C6.61194 4.55765 6.45752 4.57326 6.30647 4.5922C5.168 4.73149 4.23017 5.02345 3.43212 5.67757C2.63519 6.33169 2.17191 7.18973 1.82361 8.27064C1.48545 9.31812 1.2307 10.6631 0.910576 12.3558L0.886905 12.4784C0.433771 14.8664 0.0775765 16.7485 0.0110718 18.2317C-0.0565601 19.7528 0.173388 21.012 1.04133 22.045C1.90927 23.0791 3.11876 23.5338 4.64273 23.7488C6.13063 23.9583 8.06603 23.9583 10.5244 23.9583H11.4769C13.9342 23.9583 15.8707 23.9583 17.3575 23.7488C18.8815 23.5338 20.0921 23.0791 20.96 22.045C21.828 21.012 22.0557 19.7528 21.9892 18.2317C21.9238 16.7485 21.5665 14.8664 21.1133 12.4784L21.0908 12.3558C20.7696 10.6631 20.5137 9.31701 20.1778 8.27064C19.8283 7.18973 19.3662 6.33169 18.5681 5.67757C17.7712 5.02345 16.8322 4.73038 15.6938 4.5922C15.5385 4.57338 15.383 4.5574 15.2271 4.54428ZM6.51388 6.25145C5.55012 6.36846 4.96736 6.59021 4.51197 6.96463C4.05771 7.33682 3.7297 7.86168 3.43437 8.77766C3.13341 9.71371 2.89557 10.9595 2.56192 12.7191C2.09301 15.1896 1.76048 16.9536 1.70074 18.3053C1.64213 19.6313 1.85855 20.4002 2.34212 20.9786C2.82681 21.5547 3.5516 21.9057 4.88169 22.0929C6.23433 22.2846 8.05138 22.2868 10.5932 22.2868H11.407C13.9489 22.2868 15.7648 22.2846 17.1186 22.094C18.4486 21.9057 19.1734 21.5547 19.6581 20.9786C20.1428 20.4014 20.3581 19.6325 20.3006 18.3042C20.2398 16.9547 19.9072 15.1896 19.4383 12.7191C19.1047 10.9584 18.868 9.71482 18.5659 8.77766C18.2706 7.86168 17.9437 7.33682 17.4883 6.96352C17.0329 6.59021 16.4513 6.36846 15.4864 6.25034C14.4989 6.12999 13.2173 6.12888 11.4059 6.12888H10.5943C8.78293 6.12888 7.5013 6.12999 6.51388 6.25145Z" fill="black"/>
</svg>
